# xmcd CD database file
#
# Track frame offsets:
#	150
#	28147
#	50423
#	73564
#	132051
#	149702
#	183726
#
# Disc length: 2905 seconds
#
# Revision: 0
# Processed by: cddbd v1.5.2PL0 Copyright (c) Steve Scherf et al.
# Submitted via: CDex 1.70beta2
#
DISCID=6b0b5707
DTITLE=Arto Tunçboyaciyan - Katuner
DYEAR=2007
DGENRE=Jazz
TTITLE0=Welcome Back-December 23
TTITLE1=New Ballade
TTITLE2=Zela
TTITLE3=Norevan
TTITLE4=Oror
TTITLE5=Nanan
TTITLE6=After the phone call
EXTD=YEAR: 2007
EXTT0=
EXTT1=
EXTT2=
EXTT3=
EXTT4=
EXTT5=
EXTT6=
PLAYORDER=
